<svg id="Layer_1" enable-background="new 0 0 512 512" height="512" viewBox="0 0 512 512" width="512" xmlns="http://www.w3.org/2000/svg"><g><g><path d="m491.396 0h-229.161c-11.379 0-20.604 9.225-20.604 20.604v169.307c0 11.379 9.225 20.604 20.604 20.604h166.248l39.468 39.468v-39.468h23.446c11.379 0 20.604-9.225 20.604-20.604v-169.307c-.001-11.379-9.226-20.604-20.605-20.604z" fill="#f7f7f7"/><path d="m491.396 0h-30.905c11.379 0 20.604 9.225 20.604 20.604v169.307c0 11.379-9.225 20.604-20.604 20.604h-32.008l39.468 39.468v-39.468h23.446c11.379 0 20.604-9.225 20.604-20.604v-169.307c-.001-11.379-9.226-20.604-20.605-20.604z" fill="#efefef"/><g><path d="m339.673 85.015c8.07 0 15.351-4.844 18.469-12.287l20.236-38.005c11.174 0 20.231 9.058 20.231 20.231v17.719c0 6.084 4.932 11.016 11.016 11.016h29.877c8.945 0 15.583 8.294 13.622 17.022l-14.05 53.176c-1.864 7.053-8.244 11.967-15.539 11.967h-65.517c-7.509 0-11.943-2.076-18.346-5.998v-74.841z" fill="#ffdfbd"/><path d="m328.477 175.376h-12.999c-6.184 0-11.197-5.013-11.197-11.197v-77.973c0-6.184 5.013-11.197 11.197-11.197h12.999c6.184 0 11.197 5.013 11.197 11.197v77.973c-.001 6.184-5.014 11.197-11.197 11.197z" fill="#3498ac"/></g></g><path d="m20.604 124.991h229.162c11.379 0 20.604 9.225 20.604 20.604v169.307c0 11.379-9.225 20.604-20.604 20.604h-166.249l-39.468 39.468v-39.468h-23.445c-11.379 0-20.604-9.225-20.604-20.604v-169.307c0-11.379 9.225-20.604 20.604-20.604z" fill="#ffe66b"/><g><path d="m174.215 164.808c-17.036-.001-31.79 9.887-39.029 24.316-7.238-14.43-21.99-24.321-39.026-24.322-24.183-.002-43.789 19.912-43.791 44.478-.005 59.999 82.808 92.199 82.808 92.199s82.818-32.187 82.823-92.186c.002-24.567-19.601-44.483-43.785-44.485z" fill="#ff815c"/></g><g><path d="m174.215 164.808c-5.441 0-10.646 1.012-15.451 2.854 16.556 6.348 28.331 22.591 28.33 41.631-.003 43.433-43.402 72.291-67.367 84.916 9.137 4.815 15.45 7.27 15.45 7.27s82.818-32.186 82.822-92.186c.003-24.567-19.6-44.483-43.784-44.485z" fill="#fc6d44"/></g><g><path d="m404.965 262.018h-229.161c-11.379 0-20.604 9.225-20.604 20.604v169.307c0 11.379 9.225 20.604 20.604 20.604h166.248l39.468 39.467v-39.468h23.446c11.379 0 20.604-9.225 20.604-20.604v-169.307c-.001-11.379-9.226-20.603-20.605-20.603z" fill="#c9f0ff"/><path d="m404.965 262.018h-30.905c11.379 0 20.604 9.225 20.604 20.604v169.307c0 11.379-9.225 20.604-20.604 20.604h-32.008l39.468 39.467v-39.468h23.446c11.379 0 20.604-9.225 20.604-20.604v-169.307c-.001-11.379-9.226-20.603-20.605-20.603z" fill="#b5eaff"/><g fill="#fff"><circle cx="223.764" cy="369.408" r="19.661"/><circle cx="290.385" cy="369.408" r="19.661"/><circle cx="357.005" cy="369.408" r="19.661"/></g></g></g></svg>